<mxfile host="app.diagrams.net" modified="2024-02-28T22:32:55.189Z" agent="Mozilla/5.0 (Windows NT 10.0; Win64; x64) AppleWebKit/537.36 (KHTML, like Gecko) Chrome/121.0.0.0 Safari/537.36 OPR/107.0.0.0" version="23.1.7" etag="D_4GpeAq5IWAL71rgAc9" type="github">
  <diagram name="PÃ¡gina-1" id="Gs8XH1n-vk1Jil5ZYuc0">
    <mxGraphModel>
      <root>
        <mxCell id="0" />
        <mxCell id="1" parent="0" />
      </root>
    </mxGraphModel>
  </diagram>
</mxfile>
